<?xml version="1.0" encoding="utf-8"?>
<!-- Generator: Adobe Illustrator 26.2.1, SVG Export Plug-In . SVG Version: 6.00 Build 0)  -->
<svg version="1.1" id="Слой_3" xmlns="http://www.w3.org/2000/svg" xmlns:xlink="http://www.w3.org/1999/xlink" x="0px" y="0px"
	 viewBox="0 0 735.8 112.8" style="enable-background:new 0 0 735.8 112.8;" xml:space="preserve">
<style type="text/css">
	.st0{fill:#FFFFFF;}
</style>
<path class="st0" d="M34,89.6c0,14-6.4,22.6-20.6,22.6c-5.5,0-9.7-0.7-13.2-1.7l1.7-11.9c2.5,0.6,5.3,1.2,8.4,1.2
	c3.8,0,6.5-3,6.5-10.8V28.2h17.3L34,89.6L34,89.6z M16.7,4.1h17.4v14.8H16.7V4.1z"/>
<path class="st0" d="M41.6,49.8c-0.2-1.3-0.4-3-0.4-4.3c0-11.3,8.5-18.5,27.1-18.5c20.9,0,26.5,10.3,26.5,21.4v23.9
	c0,2.4,1,3.4,2.6,3.4c1,0,2-0.1,3-0.5l0.7,11.5c-2.6,0.8-6.4,1.6-9.8,1.6c-8.8,0-10.7-4.9-10.9-9.4h-0.7c-2,2.4-9.2,9.4-22,9.4
	c-11.5,0-19.1-5.2-19.1-15.8c0-12.4,9.8-19.6,39.2-20.2v-4.8c0-5.2-3.2-8.8-10.4-8.8S56.7,41,56.7,46c0,0.7,0.1,1.8,0.2,2.8
	L41.6,49.8z M63.4,76.3c5.5,0,11.2-2.6,14.5-6.5v-8.6c-17.6,0.4-22.6,4-22.6,9C55.4,74.5,58.2,76.3,63.4,76.3z"/>
<path class="st0" d="M131.4,27c24.6,0,27.1,14.2,27.1,20.5c0,1,0,1.8-0.2,3.1L141.1,51c0.2-0.7,0.2-1.4,0.2-2
	c0-3.5-1.9-9.6-10.4-9.6c-8,0-12.8,4.6-12.8,18.4c0,11.8,4.3,18.1,12.8,18.1s10.4-6,10.4-9.6c0-0.5,0-1.2-0.2-1.9l17.2,0.2
	c0.2,1.2,0.2,2.3,0.2,3.1c0,5.9-2.5,20.5-27.1,20.5c-20.6,0-31-11.2-31-30.5C100.4,41,109.8,27,131.4,27z"/>
<path class="st0" d="M164.2,0.6h17.3v51.7c8.3-5.6,18.1-14.9,23.9-24.1h18.8v2c-6.1,9.2-14.9,18-20.6,22.9
	c3.1,3.7,18.6,29.2,21.8,31.8v2h-18.6c-2.5-2.2-13.4-21.6-16.1-24.5c-2.3,1.8-7.1,5-9.2,6.4v18.1h-17.3L164.2,0.6L164.2,0.6z"/>
<path class="st0" d="M228,0.6h17.3v33.1h0.7c2.9-3.4,8.4-6.7,16.6-6.7c12.8,0,25.1,8.2,25.1,30.5c0,22.1-11.9,30.7-25.1,30.7
	c-10.4,0-15.6-4.7-18.4-7.7h-0.7L241,87h-13L228,0.6L228,0.6z M245.3,70.8c2.2,2.8,6,5,10.9,5c8,0,13.8-4.3,13.8-18.4
	c0-14.2-6.1-18.1-13.8-18.1c-4.1,0-8.3,2.2-10.9,5.2L245.3,70.8L245.3,70.8z"/>
<path class="st0" d="M321.2,27c20.6,0,31,12.1,31,30.7c0,18.5-10.3,30.5-31,30.5c-20.9,0-31-12-31-30.5
	C290.2,39.1,300.3,27,321.2,27z M334.5,57.7c0-13.7-5.3-18.4-13.3-18.4c-8.3,0-13.4,4.7-13.4,18.4c0,13.4,5.2,18.1,13.4,18.1
	C329.2,75.8,334.5,71.2,334.5,57.7z"/>
<path class="st0" d="M349.1,85.3l21-28l-20.5-27.4v-1.8H368l7.2,10.6c2,3,3.8,5.9,5.6,9.6h0.8c1.9-3.7,3.5-6.1,5.8-9.5l7.3-10.7
	h18.4v1.8l-20.8,26.9l21.1,28.4v1.7h-18.3l-8.2-12.1c-2.5-3.7-3.4-5.5-5.3-9h-0.8c-1.8,3.6-3.2,5.9-5.4,9.2l-7.9,11.9h-18.4V85.3z"
	/>
<path class="st0" d="M417.6,68.5h19.9V87h-19.9V68.5z"/>
<path class="st0" d="M459.6,66.4c-0.1,0.9-0.1,1.5-0.1,2c0,3.3,1.9,7.5,12.7,7.5c7,0,10.5-2.4,10.5-6c0-3.8-3.9-5-8.9-6.1l-8.9-2
	c-14.3-3.3-20.6-8.2-20.6-18.8c0-11,9.5-18.6,27.9-18.6c23,0,26.7,11,26.8,17.9c0,1,0,1.9-0.3,3.1l-15.7,0.3c0.1-0.9,0.1-1.5,0.1-2
	c0-2.9-2.1-6.8-11.5-6.8c-7,0-10.3,2.1-10.3,5.8c0,4.8,4.8,5.5,9.8,6.5l9.7,2c14.7,3,19.6,8.8,19.6,18.4c0,10.2-8.9,18.7-28.2,18.7
	c-24.7,0-29-12-29-19.2c0-0.9,0.1-1.8,0.3-2.4L459.6,66.4z"/>
<path class="st0" d="M511.7,36.8h-11.3V25.6h12.5l2.3-13.9h14.6v13.9h20.8v11.2h-20.8v29.4c0,5.6,2,8.2,7.9,8.2
	c3.6,0,8-1.3,12.3-3.1l1.1,14.3c-5,1.8-12.3,2.9-18.9,2.9c-14.3,0-20.5-6.1-20.5-19.8V36.8z"/>
<path class="st0" d="M585.2,24.4c21.6,0,32.4,12.7,32.4,32.1c0,19.3-10.8,31.9-32.4,31.9c-21.8,0-32.4-12.5-32.4-31.9
	C552.8,37,563.3,24.4,585.2,24.4z M599.1,56.5c0-14.3-5.5-19.2-13.9-19.2c-8.7,0-14.1,4.9-14.1,19.2c0,14.1,5.4,18.9,14.1,18.9
	C593.6,75.4,599.1,70.5,599.1,56.5z"/>
<path class="st0" d="M639.4,87.1h-18.2V25.6h13.3l2.3,8.5h0.9c2.9-4.4,7.5-9.8,17.1-9.8c12.5,0,16.6,9,16.6,19.1
	c0,3-0.6,6.1-1.1,8.4L654.5,51c0.4-1.9,0.5-3.8,0.5-5.1c0-5.4-2.5-8.3-6.4-8.3c-4.8,0-8,4.1-9.3,7.7V87.1z"/>
<path class="st0" d="M705.4,24.4c18.8,0,29.5,9.9,29.5,23.7c0,3.1-0.4,7.5-0.8,10.4h-43.3c0,12.2,5.1,17.3,14.3,17.3
	c9.4,0,12.2-4.8,12.2-8.3c0-0.4,0-0.9,0-1.6l16.8,0.4c0.1,0.8,0.3,1.6,0.3,2.3c0,7-4,19.8-29.4,19.8c-21,0-31.7-11.7-31.7-32
	C673.3,38.4,683.1,24.4,705.4,24.4z M718.2,48.2c0.1-0.6,0.1-1.3,0.1-1.6c0-6.9-5.9-10.4-12.8-10.4c-8,0-13.4,3.6-14.2,12H718.2z"/>
</svg>
